<svg width="1440" height="900" viewBox="0 0 1440 900" fill="none" xmlns="http://www.w3.org/2000/svg">
  <defs>
    <linearGradient id="skyGradient" x1="0%" y1="0%" x2="100%" y2="100%">
      <stop offset="0%" stop-color="#43118B" />
      <stop offset="100%" stop-color="#7B1FA2" />
    </linearGradient>
    <linearGradient id="mountainGradient1" x1="0%" y1="0%" x2="100%" y2="100%">
      <stop offset="0%" stop-color="#4A1D96" />
      <stop offset="100%" stop-color="#6D28D9" />
    </linearGradient>
    <linearGradient id="mountainGradient2" x1="0%" y1="0%" x2="100%" y2="100%">
      <stop offset="0%" stop-color="#5B21B6" />
      <stop offset="100%" stop-color="#7C3AED" />
    </linearGradient>
    <linearGradient id="foregroundGradient" x1="0%" y1="0%" x2="100%" y2="100%">
      <stop offset="0%" stop-color="#6D28D9" />
      <stop offset="100%" stop-color="#9333EA" />
    </linearGradient>
  </defs>
  
  <!-- Sky background -->
  <rect width="1440" height="900" fill="url(#skyGradient)" />
  
  <!-- Stars -->
  <g opacity="0.8">
    <circle cx="120" cy="200" r="1.5" fill="white" />
    <circle cx="420" cy="150" r="1" fill="white" />
    <circle cx="780" cy="220" r="2" fill="white" />
    <circle cx="980" cy="80" r="1.5" fill="white" />
    <circle cx="1200" cy="190" r="1" fill="white" />
    <circle cx="300" cy="250" r="1" fill="white" />
    <circle cx="580" cy="120" r="1.5" fill="white" />
    <circle cx="900" cy="280" r="1" fill="white" />
    <circle cx="1100" cy="300" r="1.5" fill="white" />
    <circle cx="1300" cy="170" r="1" fill="white" />
  </g>
  
  <!-- Far mountains -->
  <path d="M0 500L200 350L400 480L600 320L800 450L1000 370L1200 420L1440 350V900H0V500Z" fill="url(#mountainGradient1)" />
  
  <!-- Mid mountains -->
  <path d="M0 600L150 500L300 580L450 490L600 560L750 480L900 530L1050 450L1200 520L1440 440V900H0V600Z" fill="url(#mountainGradient2)" />
  
  <!-- Foreground -->
  <path d="M0 680L240 640L480 700L720 650L960 710L1200 640L1440 690V900H0V680Z" fill="url(#foregroundGradient)" />
</svg> 